# xmcd
#
# Track frame offsets: 
#        150
#        19089
#        36271
#        53340
#        71171
#        93783
#        114749
#        133778
#        155591
#        177161
#        191691
#
# Disc length: 2776 seconds
#
# Revision: 2
# Processed by: cddbd v1.5.2PL0 Copyright (c) Steve Scherf et al.
# Submitted via: ExactAudioCopy v0.95b3
#
DISCID=910ad60b
DTITLE=Edgar Winter - Rebel Road
DYEAR=2008
DGENRE=Rock
TTITLE0=Rebel Road
TTITLE1=Eye on You
TTITLE2=The Power of Positive Drinkin'
TTITLE3=Freedom
TTITLE4=Rockin' the Blues
TTITLE5=The Closer I Get
TTITLE6=I'd Do It Again 
TTITLE7=Texas Tornado 
TTITLE8=Peace and Love
TTITLE9=On the Horns of a Dilemma
TTITLE10=Oh No No
EXTD=
EXTT0=
EXTT1=
EXTT2=
EXTT3=
EXTT4=
EXTT5=
EXTT6=
EXTT7=
EXTT8=
EXTT9=
EXTT10=
PLAYORDER=
